<svg width="18" height="18" viewBox="0 0 18 18" fill="none" xmlns="http://www.w3.org/2000/svg">
<path d="M13.5001 9.643V6.42871C13.5001 5.23524 13.026 4.09064 12.182 3.24673C11.3381 2.40282 10.1935 1.92871 9.00007 1.92871C7.8066 1.92871 6.662 2.40282 5.81809 3.24673C4.97418 4.09064 4.50007 5.23524 4.50007 6.42871L4.50007 9.643C4.48095 11.2309 4.037 12.7847 3.21436 14.143L14.7858 14.143C13.9631 12.7847 13.5192 11.2309 13.5001 9.643Z" stroke="#FAFAFB" stroke-width="1.54286" stroke-miterlimit="10" stroke-linecap="square"/>
<path d="M7.18311 15.4287C7.31669 15.8036 7.563 16.1281 7.88826 16.3575C8.21353 16.5869 8.6018 16.71 8.99982 16.71C9.39784 16.71 9.78611 16.5869 10.1114 16.3575C10.4366 16.1281 10.683 15.8036 10.8165 15.4287L7.18311 15.4287Z" fill="#FAFAFB"/>
</svg>
